<mxfile host="app.diagrams.net" modified="2024-02-25T13:59:46.736Z" agent="Mozilla/5.0 (Windows NT 10.0; Win64; x64) AppleWebKit/537.36 (KHTML, like Gecko) Chrome/121.0.0.0 Safari/537.36 OPR/107.0.0.0" version="22.1.21" etag="weGKqlw7YKMjs1CbKMaa" type="github">
  <diagram name="Page-1" id="nqJoOOp19aRw9ybZXaQ5">
    <mxGraphModel>
      <root>
        <mxCell id="0" />
        <mxCell id="1" parent="0" />
      </root>
    </mxGraphModel>
  </diagram>
</mxfile>
